<?xml version="1.0" encoding="UTF-8" standalone="no"?>
<!DOCTYPE svg PUBLIC "-//W3C//DTD SVG 1.1//EN"
 "http://www.w3.org/Graphics/SVG/1.1/DTD/svg11.dtd">
<!-- Generated by graphviz version 2.43.0 (0)
 -->
<!-- Title: DB crow&#39;s foot notation Pages: 1 -->
<svg width="2191pt" height="339pt"
 viewBox="0.00 0.00 2191.00 338.50" xmlns="http://www.w3.org/2000/svg" xmlns:xlink="http://www.w3.org/1999/xlink">
<g id="graph0" class="graph" transform="scale(1 1) rotate(0) translate(4 334.5)">
<title>DB crow&#39;s foot notation</title>
<polygon fill="white" stroke="transparent" points="-4,4 -4,-334.5 2187,-334.5 2187,4 -4,4"/>
<text text-anchor="middle" x="73.5" y="-315.3" font-family="Times,serif" font-size="14.00">DB crow&#39;s foot notation</text>
<g id="clust1" class="cluster">
<title>clusterOuter</title>
<polygon fill="none" stroke="black" points="8,-8 8,-299.5 2175,-299.5 2175,-8 8,-8"/>
<text text-anchor="middle" x="50" y="-284.3" font-family="Times,serif" font-size="14.00">outer cluster</text>
</g>
<g id="clust2" class="cluster">
<title>clusterInnerA</title>
<polygon fill="none" stroke="red" points="1681,-16 1681,-268.5 2167,-268.5 2167,-16 1681,-16"/>
<text text-anchor="middle" x="1863.5" y="-253.3" font-family="Times,serif" font-size="14.00">inner red cluster &#45; labels at the end of the edges are hard to read</text>
</g>
<g id="clust3" class="cluster">
<title>clusterInnerB</title>
<polygon fill="none" stroke="blue" points="934,-16 934,-268.5 1420,-268.5 1420,-16 934,-16"/>
<text text-anchor="middle" x="1143.5" y="-253.3" font-family="Times,serif" font-size="14.00">inner blue cluster &#45; just use the foreign key as label to increase readability</text>
</g>
<g id="clust4" class="cluster">
<title>clusterInnerC</title>
<polygon fill="none" stroke="green" points="16,-16 16,-268.5 926,-268.5 926,-16 16,-16"/>
<text text-anchor="middle" x="172.5" y="-253.3" font-family="Times,serif" font-size="14.00">inner green cluster &#45; different kind of 1:1 relationships</text>
</g>
<!-- comment1 -->
<g id="node1" class="node">
<title>comment1</title>
<text text-anchor="middle" x="2025" y="-221.3" font-family="Times,serif" font-size="14.00">Trial of href/url which is useful</text>
<text text-anchor="middle" x="2025" y="-206.3" font-family="Times,serif" font-size="14.00">for complex DB models.</text>
<text text-anchor="middle" x="2025" y="-191.3" font-family="Times,serif" font-size="14.00">The drawback is that it is much more</text>
<text text-anchor="middle" x="2025" y="-176.3" font-family="Times,serif" font-size="14.00">difficult to copy text from the model.</text>
</g>
<!-- Master1 -->
<g id="node2" class="node">
<title>Master1</title>
<g id="a_node2"><a xlink:href="../html/redcar.svg" xlink:title="{\N|id PRIMARY KEY|data}">
<path fill="none" stroke="red" d="M1760,-168C1760,-168 1860,-168 1860,-168 1866,-168 1872,-174 1872,-180 1872,-180 1872,-225 1872,-225 1872,-231 1866,-237 1860,-237 1860,-237 1760,-237 1760,-237 1754,-237 1748,-231 1748,-225 1748,-225 1748,-180 1748,-180 1748,-174 1754,-168 1760,-168"/>
<text text-anchor="middle" x="1810" y="-221.8" font-family="Times,serif" font-size="14.00">Master1</text>
<polyline fill="none" stroke="red" points="1748,-214 1872,-214 "/>
<text text-anchor="middle" x="1810" y="-198.8" font-family="Times,serif" font-size="14.00">id PRIMARY KEY</text>
<polyline fill="none" stroke="red" points="1748,-191 1872,-191 "/>
<text text-anchor="middle" x="1810" y="-175.8" font-family="Times,serif" font-size="14.00">data</text>
</a>
</g>
</g>
<!-- Detail11 -->
<g id="node3" class="node">
<title>Detail11</title>
<path fill="none" stroke="red" d="M1701.5,-24.5C1701.5,-24.5 1918.5,-24.5 1918.5,-24.5 1924.5,-24.5 1930.5,-30.5 1930.5,-36.5 1930.5,-36.5 1930.5,-96.5 1930.5,-96.5 1930.5,-102.5 1924.5,-108.5 1918.5,-108.5 1918.5,-108.5 1701.5,-108.5 1701.5,-108.5 1695.5,-108.5 1689.5,-102.5 1689.5,-96.5 1689.5,-96.5 1689.5,-36.5 1689.5,-36.5 1689.5,-30.5 1695.5,-24.5 1701.5,-24.5"/>
<text text-anchor="middle" x="1810" y="-93.3" font-family="Times,serif" font-size="14.00">Detail11</text>
<polyline fill="none" stroke="red" points="1689.5,-85.5 1930.5,-85.5 "/>
<text text-anchor="middle" x="1810" y="-70.3" font-family="Times,serif" font-size="14.00">id PRIMARY KEY</text>
<polyline fill="none" stroke="red" points="1689.5,-62.5 1930.5,-62.5 "/>
<text text-anchor="middle" x="1810" y="-47.3" font-family="Times,serif" font-size="14.00">master1_id FOREIGN KEY NOT NULL</text>
<text text-anchor="middle" x="1810" y="-32.3" font-family="Times,serif" font-size="14.00">data</text>
</g>
<!-- Master1&#45;&gt;Detail11 -->
<g id="edge1" class="edge">
<title>Master1&#45;&gt;Detail11</title>
<path fill="none" stroke="red" d="M1810,-157.26C1810,-147.66 1810,-137.35 1810,-127.26"/>
<polygon fill="red" stroke="red" points="1815,-166.69 1805,-166.69 1805,-164.69 1815,-164.69 1815,-166.69"/>
<polyline fill="none" stroke="red" points="1810,-167.69 1810,-162.69 "/>
<polygon fill="red" stroke="red" points="1815,-161.69 1805,-161.69 1805,-159.69 1815,-159.69 1815,-161.69"/>
<polyline fill="none" stroke="red" points="1810,-162.69 1810,-157.69 "/>
<polygon fill="red" stroke="red" points="1810,-118.97 1814.5,-108.97 1810,-113.97 1810,-108.97 1810,-108.97 1810,-108.97 1810,-113.97 1805.5,-108.97 1810,-118.97 1810,-118.97"/>
<ellipse fill="none" stroke="red" cx="1810" cy="-122.97" rx="4" ry="4"/>
<text text-anchor="middle" x="1779.5" y="-112.77" font-family="Times,serif" font-size="14.00">master1_id</text>
<text text-anchor="middle" x="1804.5" y="-156.49" font-family="Times,serif" font-size="14.00">id</text>
</g>
<!-- Detail12 -->
<g id="node4" class="node">
<title>Detail12</title>
<path fill="none" stroke="red" d="M1961,-24.5C1961,-24.5 2147,-24.5 2147,-24.5 2153,-24.5 2159,-30.5 2159,-36.5 2159,-36.5 2159,-96.5 2159,-96.5 2159,-102.5 2153,-108.5 2147,-108.5 2147,-108.5 1961,-108.5 1961,-108.5 1955,-108.5 1949,-102.5 1949,-96.5 1949,-96.5 1949,-36.5 1949,-36.5 1949,-30.5 1955,-24.5 1961,-24.5"/>
<text text-anchor="middle" x="2054" y="-93.3" font-family="Times,serif" font-size="14.00">Detail12</text>
<polyline fill="none" stroke="red" points="1949,-85.5 2159,-85.5 "/>
<text text-anchor="middle" x="2054" y="-70.3" font-family="Times,serif" font-size="14.00">id PRIMARY KEY</text>
<polyline fill="none" stroke="red" points="1949,-62.5 2159,-62.5 "/>
<text text-anchor="middle" x="2054" y="-47.3" font-family="Times,serif" font-size="14.00">master1_id FOREIGN KEY NULL</text>
<text text-anchor="middle" x="2054" y="-32.3" font-family="Times,serif" font-size="14.00">data</text>
</g>
<!-- Master1&#45;&gt;Detail12 -->
<g id="edge2" class="edge">
<title>Master1&#45;&gt;Detail12</title>
<path fill="none" stroke="red" d="M1882.67,-161.59C1908.01,-147.67 1936.77,-131.88 1963.39,-117.26"/>
<polygon fill="red" stroke="red" points="1874.54,-171.76 1869.73,-163 1871.48,-162.03 1876.29,-170.8 1874.54,-171.76"/>
<polyline fill="none" stroke="red" points="1871.26,-167.86 1875.64,-165.45 "/>
<ellipse fill="none" stroke="red" cx="1879.15" cy="-163.53" rx="4" ry="4"/>
<polygon fill="red" stroke="red" points="1970.44,-113.39 1981.37,-112.52 1974.82,-110.98 1979.2,-108.58 1979.2,-108.58 1979.2,-108.58 1974.82,-110.98 1977.04,-104.63 1970.44,-113.39 1970.44,-113.39"/>
<ellipse fill="none" stroke="red" cx="1966.93" cy="-115.32" rx="4" ry="4"/>
<text text-anchor="middle" x="1948.7" y="-112.38" font-family="Times,serif" font-size="14.00">master1_id</text>
<text text-anchor="middle" x="1865.76" y="-156.66" font-family="Times,serif" font-size="14.00">id</text>
</g>
<!-- OuterDetail -->
<g id="node13" class="node">
<title>OuterDetail</title>
<path fill="none" stroke="black" d="M1442.5,-17C1442.5,-17 1659.5,-17 1659.5,-17 1665.5,-17 1671.5,-23 1671.5,-29 1671.5,-29 1671.5,-104 1671.5,-104 1671.5,-110 1665.5,-116 1659.5,-116 1659.5,-116 1442.5,-116 1442.5,-116 1436.5,-116 1430.5,-110 1430.5,-104 1430.5,-104 1430.5,-29 1430.5,-29 1430.5,-23 1436.5,-17 1442.5,-17"/>
<text text-anchor="middle" x="1551" y="-100.8" font-family="Times,serif" font-size="14.00">OuterDetail</text>
<polyline fill="none" stroke="black" points="1430.5,-93 1671.5,-93 "/>
<text text-anchor="middle" x="1551" y="-77.8" font-family="Times,serif" font-size="14.00">id PRIMARY KEY</text>
<polyline fill="none" stroke="black" points="1430.5,-70 1671.5,-70 "/>
<text text-anchor="middle" x="1551" y="-54.8" font-family="Times,serif" font-size="14.00">master1_id FOREIGN KEY NULL</text>
<text text-anchor="middle" x="1551" y="-39.8" font-family="Times,serif" font-size="14.00">master2_id FOREIGN KEY NOT NULL</text>
<text text-anchor="middle" x="1551" y="-24.8" font-family="Times,serif" font-size="14.00">data</text>
</g>
<!-- Master1&#45;&gt;OuterDetail -->
<g id="edge10" class="edge">
<title>Master1&#45;&gt;OuterDetail</title>
<path fill="none" stroke="black" d="M1738.74,-164.63C1713.95,-151.81 1685.57,-137.12 1658.51,-123.12"/>
<polygon fill="black" stroke="black" points="1749.37,-164.5 1744.78,-173.38 1743,-172.47 1747.6,-163.58 1749.37,-164.5"/>
<polyline fill="none" stroke="black" points="1747.96,-169.4 1743.52,-167.11 "/>
<polygon fill="black" stroke="black" points="1744.93,-162.21 1740.34,-171.09 1738.56,-170.17 1743.16,-161.29 1744.93,-162.21"/>
<polyline fill="none" stroke="black" points="1743.52,-167.11 1739.08,-164.81 "/>
<polygon fill="black" stroke="black" points="1653.81,-120.69 1647,-112.1 1649.37,-118.4 1644.93,-116.1 1644.93,-116.1 1644.93,-116.1 1649.37,-118.4 1642.86,-120.09 1653.81,-120.69 1653.81,-120.69"/>
<polygon fill="black" stroke="black" points="1652.4,-125.59 1657,-116.71 1658.78,-117.63 1654.18,-126.51 1652.4,-125.59"/>
<polyline fill="none" stroke="black" points="1653.81,-120.69 1658.25,-122.99 "/>
<text text-anchor="middle" x="1733.5" y="-138.3" font-family="Times,serif" font-size="14.00">master1_id</text>
</g>
<!-- Master2 -->
<g id="node5" class="node">
<title>Master2</title>
<path fill="none" stroke="blue" d="M1232,-168C1232,-168 1382,-168 1382,-168 1388,-168 1394,-174 1394,-180 1394,-180 1394,-225 1394,-225 1394,-231 1388,-237 1382,-237 1382,-237 1232,-237 1232,-237 1226,-237 1220,-231 1220,-225 1220,-225 1220,-180 1220,-180 1220,-174 1226,-168 1232,-168"/>
<text text-anchor="middle" x="1307" y="-221.8" font-family="Times,serif" font-size="14.00">Master2</text>
<polyline fill="none" stroke="blue" points="1220,-214 1394,-214 "/>
<text text-anchor="middle" x="1307" y="-198.8" font-family="Times,serif" font-size="14.00">master2_id PRIMARY KEY</text>
<polyline fill="none" stroke="blue" points="1220,-191 1394,-191 "/>
<text text-anchor="middle" x="1307" y="-175.8" font-family="Times,serif" font-size="14.00">data</text>
</g>
<!-- Detail21 -->
<g id="node6" class="node">
<title>Detail21</title>
<path fill="none" stroke="blue" d="M954.5,-24.5C954.5,-24.5 1171.5,-24.5 1171.5,-24.5 1177.5,-24.5 1183.5,-30.5 1183.5,-36.5 1183.5,-36.5 1183.5,-96.5 1183.5,-96.5 1183.5,-102.5 1177.5,-108.5 1171.5,-108.5 1171.5,-108.5 954.5,-108.5 954.5,-108.5 948.5,-108.5 942.5,-102.5 942.5,-96.5 942.5,-96.5 942.5,-36.5 942.5,-36.5 942.5,-30.5 948.5,-24.5 954.5,-24.5"/>
<text text-anchor="middle" x="1063" y="-93.3" font-family="Times,serif" font-size="14.00">Detail21</text>
<polyline fill="none" stroke="blue" points="942.5,-85.5 1183.5,-85.5 "/>
<text text-anchor="middle" x="1063" y="-70.3" font-family="Times,serif" font-size="14.00">detail21_id PRIMARY KEY</text>
<polyline fill="none" stroke="blue" points="942.5,-62.5 1183.5,-62.5 "/>
<text text-anchor="middle" x="1063" y="-47.3" font-family="Times,serif" font-size="14.00">master2_id FOREIGN KEY NOT NULL</text>
<text text-anchor="middle" x="1063" y="-32.3" font-family="Times,serif" font-size="14.00">data</text>
</g>
<!-- Master2&#45;&gt;Detail21 -->
<g id="edge3" class="edge">
<title>Master2&#45;&gt;Detail21</title>
<path fill="none" stroke="blue" d="M1217.8,-163.59C1208.31,-159.05 1198.89,-154.31 1190,-149.5 1172.68,-140.13 1154.6,-129.21 1137.7,-118.45"/>
<polygon fill="blue" stroke="blue" points="1228.13,-162.94 1223.86,-171.98 1222.05,-171.13 1226.32,-162.09 1228.13,-162.94"/>
<polyline fill="none" stroke="blue" points="1226.9,-167.89 1222.38,-165.75 "/>
<polygon fill="blue" stroke="blue" points="1223.61,-160.81 1219.34,-169.85 1217.53,-169 1221.8,-159.95 1223.61,-160.81"/>
<polyline fill="none" stroke="blue" points="1222.38,-165.75 1217.85,-163.62 "/>
<polygon fill="blue" stroke="blue" points="1130.96,-114.1 1125.01,-104.89 1126.76,-111.38 1122.56,-108.67 1122.56,-108.67 1122.56,-108.67 1126.76,-111.38 1120.12,-112.45 1130.96,-114.1 1130.96,-114.1"/>
<ellipse fill="none" stroke="blue" cx="1134.32" cy="-116.27" rx="4" ry="4"/>
<text text-anchor="middle" x="1220.5" y="-138.3" font-family="Times,serif" font-size="14.00">master2_id</text>
</g>
<!-- Detail22 -->
<g id="node7" class="node">
<title>Detail22</title>
<path fill="none" stroke="blue" d="M1214,-24.5C1214,-24.5 1400,-24.5 1400,-24.5 1406,-24.5 1412,-30.5 1412,-36.5 1412,-36.5 1412,-96.5 1412,-96.5 1412,-102.5 1406,-108.5 1400,-108.5 1400,-108.5 1214,-108.5 1214,-108.5 1208,-108.5 1202,-102.5 1202,-96.5 1202,-96.5 1202,-36.5 1202,-36.5 1202,-30.5 1208,-24.5 1214,-24.5"/>
<text text-anchor="middle" x="1307" y="-93.3" font-family="Times,serif" font-size="14.00">Detail22</text>
<polyline fill="none" stroke="blue" points="1202,-85.5 1412,-85.5 "/>
<text text-anchor="middle" x="1307" y="-70.3" font-family="Times,serif" font-size="14.00">detail22_id PRIMARY KEY</text>
<polyline fill="none" stroke="blue" points="1202,-62.5 1412,-62.5 "/>
<text text-anchor="middle" x="1307" y="-47.3" font-family="Times,serif" font-size="14.00">master2_id FOREIGN KEY NULL</text>
<text text-anchor="middle" x="1307" y="-32.3" font-family="Times,serif" font-size="14.00">data</text>
</g>
<!-- Master2&#45;&gt;Detail22 -->
<g id="edge4" class="edge">
<title>Master2&#45;&gt;Detail22</title>
<path fill="none" stroke="blue" d="M1257.31,-156.57C1254.32,-149.58 1253.43,-142.13 1256,-134.5 1257.14,-131.12 1258.52,-127.78 1260.1,-124.5"/>
<polygon fill="blue" stroke="blue" points="1267.86,-164.43 1259.28,-169.58 1258.25,-167.86 1266.83,-162.72 1267.86,-164.43"/>
<polyline fill="none" stroke="blue" points="1264.08,-167.86 1261.51,-163.57 "/>
<ellipse fill="none" stroke="blue" cx="1259.45" cy="-160.14" rx="4" ry="4"/>
<polygon fill="blue" stroke="blue" points="1264.25,-117.35 1273.16,-110.96 1266.76,-113.02 1269.27,-108.7 1269.27,-108.7 1269.27,-108.7 1266.76,-113.02 1265.37,-106.44 1264.25,-117.35 1264.25,-117.35"/>
<ellipse fill="none" stroke="blue" cx="1262.24" cy="-120.81" rx="4" ry="4"/>
<text text-anchor="middle" x="1286.5" y="-138.3" font-family="Times,serif" font-size="14.00">master2_id</text>
</g>
<!-- Master2&#45;&gt;OuterDetail -->
<g id="edge11" class="edge">
<title>Master2&#45;&gt;OuterDetail</title>
<path fill="none" stroke="black" d="M1379.91,-161.46C1401.71,-149.49 1426.02,-136.14 1449.32,-123.34"/>
<polygon fill="black" stroke="black" points="1371.54,-171.76 1366.73,-163 1368.48,-162.03 1373.29,-170.8 1371.54,-171.76"/>
<polyline fill="none" stroke="black" points="1368.26,-167.86 1372.64,-165.45 "/>
<ellipse fill="none" stroke="black" cx="1376.15" cy="-163.53" rx="4" ry="4"/>
<polygon fill="black" stroke="black" points="1453.74,-120.91 1464.67,-120.04 1458.12,-118.51 1462.51,-116.1 1462.51,-116.1 1462.51,-116.1 1458.12,-118.51 1460.34,-112.15 1453.74,-120.91 1453.74,-120.91"/>
<polygon fill="black" stroke="black" points="1450.46,-117.01 1455.27,-125.78 1453.52,-126.74 1448.71,-117.97 1450.46,-117.01"/>
<polyline fill="none" stroke="black" points="1453.74,-120.91 1449.36,-123.32 "/>
<text text-anchor="middle" x="1459.5" y="-138.3" font-family="Times,serif" font-size="14.00">master2_id</text>
</g>
<!-- Master3 -->
<g id="node8" class="node">
<title>Master3</title>
<path fill="none" stroke="green" d="M421,-168C421,-168 521,-168 521,-168 527,-168 533,-174 533,-180 533,-180 533,-225 533,-225 533,-231 527,-237 521,-237 521,-237 421,-237 421,-237 415,-237 409,-231 409,-225 409,-225 409,-180 409,-180 409,-174 415,-168 421,-168"/>
<text text-anchor="middle" x="471" y="-221.8" font-family="Times,serif" font-size="14.00">Master3</text>
<polyline fill="none" stroke="green" points="409,-214 533,-214 "/>
<text text-anchor="middle" x="471" y="-198.8" font-family="Times,serif" font-size="14.00">id PRIMARY KEY</text>
<polyline fill="none" stroke="green" points="409,-191 533,-191 "/>
<text text-anchor="middle" x="471" y="-175.8" font-family="Times,serif" font-size="14.00">data</text>
</g>
<!-- Detail31 -->
<g id="node9" class="node">
<title>Detail31</title>
<path fill="none" stroke="green" d="M634,-24.5C634,-24.5 906,-24.5 906,-24.5 912,-24.5 918,-30.5 918,-36.5 918,-36.5 918,-96.5 918,-96.5 918,-102.5 912,-108.5 906,-108.5 906,-108.5 634,-108.5 634,-108.5 628,-108.5 622,-102.5 622,-96.5 622,-96.5 622,-36.5 622,-36.5 622,-30.5 628,-24.5 634,-24.5"/>
<text text-anchor="middle" x="770" y="-93.3" font-family="Times,serif" font-size="14.00">Detail31</text>
<polyline fill="none" stroke="green" points="622,-85.5 918,-85.5 "/>
<text text-anchor="middle" x="770" y="-70.3" font-family="Times,serif" font-size="14.00">id PRIMARY KEY</text>
<polyline fill="none" stroke="green" points="622,-62.5 918,-62.5 "/>
<text text-anchor="middle" x="770" y="-47.3" font-family="Times,serif" font-size="14.00">master3_id FOREIGN KEY UNIQUE NOT NULL</text>
<text text-anchor="middle" x="770" y="-32.3" font-family="Times,serif" font-size="14.00">data</text>
</g>
<!-- Master3&#45;&gt;Detail31 -->
<g id="edge6" class="edge">
<title>Master3&#45;&gt;Detail31</title>
<path fill="none" stroke="green" d="M542.62,-169.4C579.64,-152.81 625.5,-132.26 666.32,-113.97"/>
<polygon fill="green" stroke="green" points="536.27,-177.73 532.18,-168.6 534.01,-167.78 538.1,-176.91 536.27,-177.73"/>
<polyline fill="none" stroke="green" points="533.32,-173.57 537.88,-171.53 "/>
<polygon fill="green" stroke="green" points="540.84,-175.68 536.75,-166.56 538.57,-165.74 542.66,-174.86 540.84,-175.68"/>
<polyline fill="none" stroke="green" points="537.88,-171.53 542.44,-169.48 "/>
<polygon fill="green" stroke="green" points="675.29,-104.47 679.38,-113.59 677.55,-114.41 673.46,-105.29 675.29,-104.47"/>
<polyline fill="none" stroke="green" points="678.24,-108.62 673.68,-110.67 "/>
<ellipse fill="none" stroke="green" cx="670.03" cy="-112.3" rx="4" ry="4"/>
<text text-anchor="middle" x="651.5" y="-138.3" font-family="Times,serif" font-size="14.00">master3_id</text>
</g>
<!-- Detail32 -->
<g id="node10" class="node">
<title>Detail32</title>
<path fill="none" stroke="green" d="M350,-24.5C350,-24.5 592,-24.5 592,-24.5 598,-24.5 604,-30.5 604,-36.5 604,-36.5 604,-96.5 604,-96.5 604,-102.5 598,-108.5 592,-108.5 592,-108.5 350,-108.5 350,-108.5 344,-108.5 338,-102.5 338,-96.5 338,-96.5 338,-36.5 338,-36.5 338,-30.5 344,-24.5 350,-24.5"/>
<text text-anchor="middle" x="471" y="-93.3" font-family="Times,serif" font-size="14.00">Detail32</text>
<polyline fill="none" stroke="green" points="338,-85.5 604,-85.5 "/>
<text text-anchor="middle" x="471" y="-70.3" font-family="Times,serif" font-size="14.00">id PRIMARY KEY</text>
<polyline fill="none" stroke="green" points="338,-62.5 604,-62.5 "/>
<text text-anchor="middle" x="471" y="-47.3" font-family="Times,serif" font-size="14.00">master3_id FOREIGN KEY UNIQUE NULL</text>
<text text-anchor="middle" x="471" y="-32.3" font-family="Times,serif" font-size="14.00">data</text>
</g>
<!-- Master3&#45;&gt;Detail32 -->
<g id="edge7" class="edge">
<title>Master3&#45;&gt;Detail32</title>
<path fill="none" stroke="green" d="M471,-154.55C471,-144.11 471,-132.95 471,-122.23"/>
<polygon fill="green" stroke="green" points="476,-166.69 466,-166.69 466,-164.69 476,-164.69 476,-166.69"/>
<polyline fill="none" stroke="green" points="471,-167.69 471,-162.69 "/>
<ellipse fill="none" stroke="green" cx="471" cy="-158.69" rx="4" ry="4"/>
<polygon fill="green" stroke="green" points="466,-109.97 476,-109.97 476,-111.97 466,-111.97 466,-109.97"/>
<polyline fill="none" stroke="green" points="471,-108.97 471,-113.97 "/>
<ellipse fill="none" stroke="green" cx="471" cy="-117.97" rx="4" ry="4"/>
<text text-anchor="middle" x="501.5" y="-138.3" font-family="Times,serif" font-size="14.00">master3_id</text>
</g>
<!-- Detail33 -->
<g id="node11" class="node">
<title>Detail33</title>
<path fill="none" stroke="green" d="M36,-24.5C36,-24.5 308,-24.5 308,-24.5 314,-24.5 320,-30.5 320,-36.5 320,-36.5 320,-96.5 320,-96.5 320,-102.5 314,-108.5 308,-108.5 308,-108.5 36,-108.5 36,-108.5 30,-108.5 24,-102.5 24,-96.5 24,-96.5 24,-36.5 24,-36.5 24,-30.5 30,-24.5 36,-24.5"/>
<text text-anchor="middle" x="172" y="-93.3" font-family="Times,serif" font-size="14.00">Detail33</text>
<polyline fill="none" stroke="green" points="24,-85.5 320,-85.5 "/>
<text text-anchor="middle" x="172" y="-70.3" font-family="Times,serif" font-size="14.00">id PRIMARY KEY</text>
<polyline fill="none" stroke="green" points="24,-62.5 320,-62.5 "/>
<text text-anchor="middle" x="172" y="-47.3" font-family="Times,serif" font-size="14.00">master3_id FOREIGN KEY UNIQUE NOT NULL</text>
<text text-anchor="middle" x="172" y="-32.3" font-family="Times,serif" font-size="14.00">data</text>
</g>
<!-- Master3&#45;&gt;Detail33 -->
<g id="edge8" class="edge">
<title>Master3&#45;&gt;Detail33</title>
<path fill="none" stroke="green" d="M399.38,-169.4C361.57,-152.46 314.53,-131.37 273.06,-112.79"/>
<polygon fill="green" stroke="green" points="409.82,-168.6 405.73,-177.73 403.9,-176.91 407.99,-167.78 409.82,-168.6"/>
<polyline fill="none" stroke="green" points="408.68,-173.57 404.12,-171.53 "/>
<polygon fill="green" stroke="green" points="405.25,-166.56 401.16,-175.68 399.34,-174.86 403.43,-165.74 405.25,-166.56"/>
<polyline fill="none" stroke="green" points="404.12,-171.53 399.56,-169.48 "/>
<polygon fill="green" stroke="green" points="262.62,-113.59 266.71,-104.47 268.54,-105.29 264.45,-114.41 262.62,-113.59"/>
<polyline fill="none" stroke="green" points="263.76,-108.62 268.32,-110.67 "/>
<polygon fill="green" stroke="green" points="267.19,-115.64 271.28,-106.51 273.1,-107.33 269.01,-116.46 267.19,-115.64"/>
<polyline fill="none" stroke="green" points="268.32,-110.67 272.88,-112.71 "/>
<text text-anchor="middle" x="379.5" y="-138.3" font-family="Times,serif" font-size="14.00">master3_id</text>
</g>
<!-- comment3 -->
<g id="node12" class="node">
<title>comment3</title>
<text text-anchor="middle" x="172" y="-221.3" font-family="Times,serif" font-size="14.00">use teetee if your</text>
<text text-anchor="middle" x="172" y="-206.3" font-family="Times,serif" font-size="14.00">application can</text>
<text text-anchor="middle" x="172" y="-191.3" font-family="Times,serif" font-size="14.00">ensure one detail</text>
<text text-anchor="middle" x="172" y="-176.3" font-family="Times,serif" font-size="14.00">for each master</text>
</g>
<!-- comment3&#45;&gt;Detail33 -->
<g id="edge5" class="edge">
<title>comment3&#45;&gt;Detail33</title>
<path fill="none" stroke="green" stroke-dasharray="1,5" d="M172,-168.38C172,-150.4 172,-128 172,-108.88"/>
</g>
<!-- commentOuter -->
<g id="node14" class="node">
<title>commentOuter</title>
<text text-anchor="middle" x="1551" y="-221.3" font-family="Times,serif" font-size="14.00">use crowtee if your</text>
<text text-anchor="middle" x="1551" y="-206.3" font-family="Times,serif" font-size="14.00">application can ensure</text>
<text text-anchor="middle" x="1551" y="-191.3" font-family="Times,serif" font-size="14.00">at least one detail</text>
<text text-anchor="middle" x="1551" y="-176.3" font-family="Times,serif" font-size="14.00">for each master</text>
</g>
<!-- commentOuter&#45;&gt;OuterDetail -->
<g id="edge9" class="edge">
<title>commentOuter&#45;&gt;OuterDetail</title>
<path fill="none" stroke="black" stroke-dasharray="1,5" d="M1551,-168.38C1551,-152.64 1551,-133.53 1551,-116.19"/>
</g>
</g>
</svg>
